<svg version="1.1" id="Capa_1" viewBox="0 0 30.88 30.88" style="enable-background:new 0 0 30.88 30.88;" xml:space="preserve">
	<path d="M23.597,25.972l0.189-2.267l-2.963-8.055h1.645v1.3h0.801v-3.401h-0.801v1.299h-1.939l-1.92-5.216
		c0.207-0.464,0.324-0.97,0.324-1.509c0-1.893-1.412-3.44-3.238-3.688V0h-1.004v4.435c-1.822,0.248-3.237,1.795-3.237,3.688
		c0,0.76,0.229,1.463,0.617,2.053l-1.719,4.672H8.337v-1.299H7.535v3.401h0.803v-1.3h1.721l-2.965,8.055l0.191,2.267L6.181,30.88
		l2.479-4.343l1.783-1.67l4.998-12.791l4.998,12.791l1.781,1.67l2.48,4.343L23.597,25.972z M15.253,10.715
		c-1.428,0-2.586-1.156-2.586-2.584c0-1.427,1.158-2.584,2.586-2.584s2.584,1.157,2.584,2.584
		C17.837,9.559,16.681,10.715,15.253,10.715z"/>
	<circle cx="15.252" cy="8.168" r="1.273"/>
</svg>
