<svg viewBox="0 0 457.729 457.729"><path d="M138.009 216.05l-68.532 18.364-18.717-69.852L0 252.871l11.673 20.173h93.576zM274.8 353.39l-93.615-93.615h-.611v43.269H29.031l58.616 101.303h92.927v43.269zM279.467 150.116l19.342-72.187 66.208 17.74-49.97-85.556h-23.295l-46.482 80.51z"></path><path d="M218.57 163.406l.305-.529-37.471-21.635 75.771-131.129H140.137L93.672 90.591 56.201 68.956 90.69 197.671zM266.881 303.044l50.345 50.346-50.956 50.957h101.46l13.338-23.252-45.063-78.051zM411.266 170.794l37.472-21.634-128.715-34.489-34.266 127.88.306.529 37.472-21.634 75.771 131.24 58.423-101.414z"></path></svg>