<svg viewBox="0 0 1000 1000"><path d="M500 10C229.4 10 10 229.4 10 500s219.4 490 490 490 490-219.4 490-490S770.6 10 500 10zm-27.6 695.7c0 11.6-9.5 21.1-21.1 21.1H296.2c-11.6 0-21.1-9.5-21.1-21.1v-155c0-11.6 9.5-21.1 21.1-21.1h155.1c11.6 0 21.1 9.5 21.1 21.1v155zm0-239.7c0 11.6-9.5 21.1-21.1 21.1H296.2c-11.6 0-21.1-9.5-21.1-21.1V311c0-11.6 9.5-21.1 21.1-21.1h155.1c11.6 0 21.1 9.5 21.1 21.1v155zm241.5 239.7c0 11.6-9.5 21.1-21.1 21.1H537.7c-11.6 0-21.1-9.5-21.1-21.1v-155c0-11.6 9.5-21.1 21.1-21.1h155.1c11.6 0 21.1 9.5 21.1 21.1v155zm2.7-294.1l-89.5 89.5c-8.2 8.2-21.6 8.2-29.8 0l-89.5-89.5c-8.2-8.2-8.2-21.6 0-29.8l89.5-89.5c8.2-8.2 21.6-8.2 29.8 0l89.5 89.5c8.3 8.2 8.3 21.6 0 29.8z"></path></svg>