<?xml version="1.0" encoding="iso-8859-1"?>
<!-- Generator: Adobe Illustrator 19.0.0, SVG Export Plug-In . SVG Version: 6.00 Build 0)  -->
<svg version="1.1" id="Layer_1" xmlns="http://www.w3.org/2000/svg" xmlns:xlink="http://www.w3.org/1999/xlink" x="0px" y="0px"
	 viewBox="0 0 512 512" style="enable-background:new 0 0 512 512;" xml:space="preserve">
<g>
	<g>
		<g>
			<path d="M501.333,128H448V85.333c0-5.867-4.8-10.667-10.667-10.667H219.307l-30.72-29.12c-2.027-1.92-4.587-2.88-7.36-2.88
				H10.667C4.8,42.667,0,47.467,0,53.333V408c0,34.347,28.16,61.333,64,61.333h371.093c40.96,0,76.907-36.267,76.907-77.547v-253.12
				C512,132.8,507.2,128,501.333,128z M106.667,138.667V408c0,23.573-17.493,40-42.667,40c-24.32,0-42.667-17.173-42.667-40V64
				H176.96l30.72,29.12c2.027,1.92,4.587,2.88,7.36,2.88h211.627v32H117.333C111.467,128,106.667,132.8,106.667,138.667z
				 M490.667,391.787c0,29.44-26.56,56.213-55.573,56.213H113.707C122.773,437.44,128,423.68,128,408V149.333h362.667V391.787z"/>
			<path d="M186.347,385.173c7.04,6.187,16,9.6,25.28,9.6c0.853,0,1.6,0,2.133-0.107h191.573c1.067,0,2.133-0.213,3.2-0.533
				C410.133,393.6,448,380.8,448,320c0-22.827-8.64-44.8-23.253-58.773c-9.173-9.067-21.227-14.613-34.027-15.787
				c-14.613-26.453-45.12-42.667-81.387-42.667c-41.813,0-77.12,36.16-84.16,84.16c-12.373,0.107-24.32,4.373-34.027,12.053
				c-13.013,10.24-20.48,25.92-20.48,42.347C170.667,361.173,176,375.893,186.347,385.173z M204.373,315.733
				c5.973-4.8,13.333-7.36,21.013-7.467c2.347,0,4.693,0.213,6.933,0.747c5.76,1.28,11.52-2.24,12.8-8
				c0.107-0.64,0.213-1.173,0.213-1.813c2.24-41.387,30.933-75.093,64-75.093c23.787,0,53.44,9.493,64.853,36.053
				c1.707,4.053,5.76,6.613,10.24,6.4c9.6-0.32,18.88,3.307,25.6,10.027c10.453,10.027,16.64,26.24,16.64,43.307
				c0,39.253-18.56,50.88-23.467,53.333H213.333c-0.32,0-0.747,0-1.067,0c-4.373,0.213-8.64-1.28-11.947-4.267
				c-5.44-5.013-8.32-14.613-8.32-27.733C191.893,331.307,196.48,321.92,204.373,315.733z"/>
		</g>
	</g>
</g>
<g>
</g>
<g>
</g>
<g>
</g>
<g>
</g>
<g>
</g>
<g>
</g>
<g>
</g>
<g>
</g>
<g>
</g>
<g>
</g>
<g>
</g>
<g>
</g>
<g>
</g>
<g>
</g>
<g>
</g>
</svg>
