<?xml version="1.0" encoding="iso-8859-1"?>
<!-- Generator: Adobe Illustrator 16.0.0, SVG Export Plug-In . SVG Version: 6.00 Build 0)  -->
<!DOCTYPE svg PUBLIC "-//W3C//DTD SVG 1.1//EN" "http://www.w3.org/Graphics/SVG/1.1/DTD/svg11.dtd">
<svg version="1.1" id="Capa_1" xmlns="http://www.w3.org/2000/svg" xmlns:xlink="http://www.w3.org/1999/xlink" x="0px" y="0px"
	  viewBox="0 0 150.592 150.593" style="enable-background:new 0 0 150.592 150.593;"
	 xml:space="preserve">
<g>
	<path d="M103.503,53.73l-2.404-8.946c-0.791-2.961-4.003-4.698-7.15-3.857L36.813,56.235c-3.143,0.849-5.065,3.953-4.271,6.914
		l2.885,10.75c0.005,0.032,0.032,0.055,0.042,0.082c-4.266,7.478-6.734,16.1-6.734,25.308c0,28.292,23.016,51.305,51.3,51.305
		s51.297-23.013,51.297-51.305C131.321,79.465,119.994,62.273,103.503,53.73z M80.024,139.793c-22.378,0-40.5-18.125-40.5-40.505
		c0-8.354,2.534-16.11,6.863-22.56l51.411-13.785c13.441,6.586,22.723,20.36,22.723,36.339
		C120.521,121.668,102.396,139.793,80.024,139.793z M63.824,98.059c-3.726,0-6.75-3.021-6.75-6.75c0-3.728,3.024-6.75,6.75-6.75
		s6.75,3.022,6.75,6.75C70.574,95.043,67.549,98.059,63.824,98.059z M102.971,91.309c0,3.729-3.021,6.75-6.75,6.75
		c-3.723,0-6.75-3.021-6.75-6.75c0-3.728,3.027-6.75,6.75-6.75C99.95,84.559,102.971,87.586,102.971,91.309z M80.024,99.293
		c7.454,0,13.497,6.043,13.497,13.5s-6.043,13.5-13.497,13.5c-7.457,0-13.5-6.043-13.5-13.5S72.567,99.293,80.024,99.293z
		 M100.488,114.602c0,11.285-9.182,20.467-20.464,20.467c-11.285,0-20.466-9.182-20.466-20.467c0-0.743,0.604-1.35,1.35-1.35
		s1.35,0.606,1.35,1.35c0,9.793,7.971,17.767,17.767,17.767c9.795,0,17.764-7.974,17.764-17.767c0-0.743,0.606-1.35,1.35-1.35
		C99.886,113.252,100.488,113.858,100.488,114.602z M27.795,41.71c-3.623,0.968-7.327-1.187-8.306-4.794
		c-0.957-3.606,1.176-7.33,4.796-8.295c1.954-0.524,3.902-0.076,5.463,0.96L47.887,2.436c2.01-3.019,5.622-3.261,8.021-0.562
		l29.27,33.018c2.395,2.7,1.498,5.679-1.99,6.623l-36.78,9.851c-3.494,0.934-5.761-1.205-5.039-4.746l2.863-13.938
		c0.728-3.554-1.382-5.21-4.662-3.71l-7.488,3.423c0.156,0.351,0.398,0.638,0.506,1.015C33.557,37.021,31.408,40.745,27.795,41.71z"
		/>
</g>
<g>
</g>
<g>
</g>
<g>
</g>
<g>
</g>
<g>
</g>
<g>
</g>
<g>
</g>
<g>
</g>
<g>
</g>
<g>
</g>
<g>
</g>
<g>
</g>
<g>
</g>
<g>
</g>
<g>
</g>
</svg>
